<svg xmlns="http://www.w3.org/2000/svg" viewBox="0 0 64 64" role="img" aria-label="MonadCount">
  <title>MonadCount</title>
  <desc>The tone row: the 56 used subcarriers of an 802.11 HT20 capture, four rows of fourteen, with the nulled centre bin as the gap. Signal cyan on paper.</desc>
  <rect width="64" height="64" fill="#FBFBF9"/>
  <g fill="#0096C9">
    <circle cx="7.5" cy="14" r="1.6"/> <circle cx="11.0" cy="14" r="1.6"/> <circle cx="14.5" cy="14" r="1.6"/> <circle cx="18.0" cy="14" r="1.6"/> <circle cx="21.5" cy="14" r="1.6"/> <circle cx="25.0" cy="14" r="1.6"/> <circle cx="28.5" cy="14" r="1.6"/> <circle cx="35.5" cy="14" r="1.6"/> <circle cx="39.0" cy="14" r="1.6"/> <circle cx="42.5" cy="14" r="1.6"/> <circle cx="46.0" cy="14" r="1.6"/> <circle cx="49.5" cy="14" r="1.6"/> <circle cx="53.0" cy="14" r="1.6"/> <circle cx="56.5" cy="14" r="1.6"/>
    <circle cx="7.5" cy="26" r="1.6"/> <circle cx="11.0" cy="26" r="1.6"/> <circle cx="14.5" cy="26" r="1.6"/> <circle cx="18.0" cy="26" r="1.6"/> <circle cx="21.5" cy="26" r="1.6"/> <circle cx="25.0" cy="26" r="1.6"/> <circle cx="28.5" cy="26" r="1.6"/> <circle cx="35.5" cy="26" r="1.6"/> <circle cx="39.0" cy="26" r="1.6"/> <circle cx="42.5" cy="26" r="1.6"/> <circle cx="46.0" cy="26" r="1.6"/> <circle cx="49.5" cy="26" r="1.6"/> <circle cx="53.0" cy="26" r="1.6"/> <circle cx="56.5" cy="26" r="1.6"/>
    <circle cx="7.5" cy="38" r="1.6"/> <circle cx="11.0" cy="38" r="1.6"/> <circle cx="14.5" cy="38" r="1.6"/> <circle cx="18.0" cy="38" r="1.6"/> <circle cx="21.5" cy="38" r="1.6"/> <circle cx="25.0" cy="38" r="1.6"/> <circle cx="28.5" cy="38" r="1.6"/> <circle cx="35.5" cy="38" r="1.6"/> <circle cx="39.0" cy="38" r="1.6"/> <circle cx="42.5" cy="38" r="1.6"/> <circle cx="46.0" cy="38" r="1.6"/> <circle cx="49.5" cy="38" r="1.6"/> <circle cx="53.0" cy="38" r="1.6"/> <circle cx="56.5" cy="38" r="1.6"/>
    <circle cx="7.5" cy="50" r="1.6"/> <circle cx="11.0" cy="50" r="1.6"/> <circle cx="14.5" cy="50" r="1.6"/> <circle cx="18.0" cy="50" r="1.6"/> <circle cx="21.5" cy="50" r="1.6"/> <circle cx="25.0" cy="50" r="1.6"/> <circle cx="28.5" cy="50" r="1.6"/> <circle cx="35.5" cy="50" r="1.6"/> <circle cx="39.0" cy="50" r="1.6"/> <circle cx="42.5" cy="50" r="1.6"/> <circle cx="46.0" cy="50" r="1.6"/> <circle cx="49.5" cy="50" r="1.6"/> <circle cx="53.0" cy="50" r="1.6"/> <circle cx="56.5" cy="50" r="1.6"/>
  </g>
</svg>
